# xmcd
#
# Track frame offsets: 
#        150
#        13990
#        29678
#        45469
#        58152
#        71217
#        84260
#        102935
#        118595
#        133966
#        152305
#        170784
#        185768
#
# Disc length: 2669 seconds
#
# Revision: 1
# Processed by: cddbd v1.5PL3 Copyright (c) Steve Scherf et al.
# Submitted via: ExactAudioCopy v0.95a3
#
DISCID=ba0a6b0d
DTITLE=Charley Pride - Comfort Of Her Wings
DYEAR=2003
DGENRE=Country
TTITLE0=Hook In My Heart
TTITLE1=Field Of Dreams
TTITLE2=Empty Shoes
TTITLE3=I Need Somebody Bad
TTITLE4=Trapped In An Old Country Song
TTITLE5=(I Believe In) Good Old Country Music
TTITLE6=Chain Of Love
TTITLE7=Two Pump Texaco
TTITLE8=Plenty Good Lovin'
TTITLE9=Old Heart (Rest In Pieces)
TTITLE10=If This Old House Could Talk
TTITLE11=Comfort Of Her Wings
TTITLE12=Stars And Stripes
EXTD=
EXTT0=
EXTT1=
EXTT2=
EXTT3=
EXTT4=
EXTT5=
EXTT6=
EXTT7=
EXTT8=
EXTT9=
EXTT10=
EXTT11=
EXTT12=
PLAYORDER=
